<svg width="72" height="72" viewBox="0 0 72 72" fill="none" xmlns="http://www.w3.org/2000/svg">
<circle cx="36" cy="36" r="36" fill="url(#paint0_linear_0_3414)"/>
<path fill-rule="evenodd" clip-rule="evenodd" d="M47.7251 19.092V26.6624C52.9561 26.9483 57.1183 31.0269 57.1183 36C57.1183 40.9731 52.956 45.0517 47.725 45.3376V52.908C47.725 54.6128 46.3379 55.9999 44.633 55.9999H27.0988C25.3939 55.9999 24.0068 54.6129 24.0068 52.908V45.6673C24.0068 45.343 24.2696 45.0802 24.5939 45.0802C24.9182 45.0802 25.1811 45.343 25.1811 45.6673V49.1898H46.5509V45.3378C45.559 45.2841 44.5904 45.0943 43.6614 44.7704L39.2782 47.1612C38.8122 47.4153 38.265 46.9412 38.4453 46.4452L39.7529 42.8493H33.0479C32.8939 42.8493 32.7415 42.7866 32.6328 42.6773L27.9361 37.9807C27.8273 37.8715 27.7643 37.7201 27.7643 37.5656V24.728C27.7643 24.4038 28.0271 24.1409 28.3514 24.1409H43.3807C43.705 24.1409 43.9678 24.4038 43.9678 24.728V27.1298C44.7869 26.8719 45.6532 26.7115 46.551 26.6624V22.184H25.1811V42.8884C25.1811 43.2127 24.9183 43.4755 24.594 43.4755C24.2697 43.4755 24.0069 43.2127 24.0069 42.8884V19.092C24.0069 17.3871 25.394 16 27.0989 16H44.6332C46.338 16 47.7251 17.3871 47.7251 19.092ZM44.6332 54.8259C45.6907 54.8259 46.551 53.9655 46.551 52.908V50.364H25.1811V52.908C25.1811 53.9655 26.0414 54.8259 27.0989 54.8259H44.6332ZM25.1811 21.0098V19.092C25.1811 18.0345 26.0413 17.1741 27.0989 17.1741H44.6331C45.6906 17.1741 46.5509 18.0345 46.5509 19.092V21.0098H25.1811ZM29.7687 38.1527L32.461 40.8449V38.1527H29.7687ZM33.6351 41.6752V37.5655C33.6351 37.2413 33.3723 36.9784 33.048 36.9784H28.9384V25.3151H42.7936V27.5796C42.1889 27.8548 41.6184 28.1859 41.089 28.5651C41.0229 28.5392 40.9511 28.5245 40.8757 28.5245H37.7447C37.4204 28.5245 37.1576 28.7874 37.1576 29.1116C37.1576 29.4359 37.4204 29.6987 37.7447 29.6987H39.7685C39.1952 30.2873 38.7011 30.9447 38.3016 31.6557H31.4825C31.1582 31.6557 30.8954 31.9186 30.8954 32.2428C30.8954 32.567 31.1582 32.8299 31.4825 32.8299H37.7482C37.3664 33.8204 37.1577 34.8878 37.1577 36.0002C37.1577 38.0834 37.8756 40.0544 39.2025 41.6753H33.6351V41.6752ZM43.8204 43.579C44.8749 43.9778 45.9911 44.18 47.138 44.18C51.9938 44.18 55.9443 40.5105 55.9443 35.9999C55.9443 31.4894 51.9937 27.8198 47.138 27.8198C42.2823 27.8198 38.3318 31.4894 38.3318 35.9999C38.3318 38.2172 39.2721 40.2933 40.9795 41.8456C41.1557 42.0059 41.2178 42.2567 41.1364 42.4806L40.0797 45.3865L43.3316 43.6127C43.4818 43.5308 43.6604 43.5184 43.8204 43.579ZM34.6136 18.5049H37.1185C37.4428 18.5049 37.7056 18.7677 37.7056 19.092C37.7056 19.4162 37.4428 19.6791 37.1185 19.6791H34.6136C34.2893 19.6791 34.0264 19.4162 34.0264 19.092C34.0264 18.7678 34.2893 18.5049 34.6136 18.5049ZM37.1185 51.0685H34.6136C34.2893 51.0685 34.0264 51.3314 34.0264 51.6556V53.5343C34.0264 53.8585 34.2893 54.1214 34.6136 54.1214H37.1185C37.4428 54.1214 37.7056 53.8585 37.7056 53.5343V51.6556C37.7056 51.3313 37.4428 51.0685 37.1185 51.0685ZM36.5314 52.9472H35.2007V52.2427H36.5314V52.9472ZM35.2398 28.5245H31.4825C31.1582 28.5245 30.8954 28.7873 30.8954 29.1116C30.8954 29.4358 31.1582 29.6987 31.4825 29.6987H35.2398C35.5641 29.6987 35.8269 29.4358 35.8269 29.1116C35.8269 28.7873 35.5641 28.5245 35.2398 28.5245ZM31.4825 34.7867H35.8661C36.1904 34.7867 36.4531 35.0495 36.4532 35.3738C36.4532 35.698 36.1904 35.9609 35.8661 35.9609H31.4825C31.1582 35.9609 30.8954 35.698 30.8954 35.3738C30.8954 35.0496 31.1582 34.7867 31.4825 34.7867ZM50.23 34.1213C50.23 34.4455 49.9672 34.7084 49.6429 34.7084C49.3186 34.7084 49.0558 34.4455 49.0557 34.1213V33.4951C49.0557 32.783 48.4764 32.2035 47.7642 32.2035H46.8249C45.94 32.2035 45.2202 32.9234 45.2202 33.8082C45.2202 34.693 45.94 35.4129 46.8249 35.4129H47.4511C48.9835 35.4129 50.23 36.6595 50.23 38.1918C50.23 39.6316 49.1293 40.819 47.7251 40.957V42.2622C47.7251 42.5864 47.4623 42.8493 47.138 42.8493C46.8137 42.8493 46.5509 42.5864 46.5509 42.2622V40.9706H46.5118C45.1521 40.9706 44.046 39.8645 44.046 38.5048C44.046 38.1806 44.3088 37.9177 44.6331 37.9177C44.9574 37.9177 45.2202 38.1806 45.2202 38.5048C45.2202 39.217 45.7996 39.7964 46.5118 39.7964H47.4511C48.3359 39.7964 49.0557 39.0766 49.0557 38.1917C49.0557 37.3069 48.3359 36.587 47.4511 36.587H46.8248C45.2925 36.587 44.046 35.3405 44.046 33.8082C44.046 32.3684 45.1468 31.181 46.5509 31.043V29.7377C46.5509 29.4135 46.8137 29.1506 47.138 29.1506C47.4623 29.1506 47.7251 29.4135 47.7251 29.7377V31.0293H47.7643C49.1239 31.0293 50.23 32.1355 50.23 33.4951V34.1213Z" fill="white"/>
<defs>
<linearGradient id="paint0_linear_0_3414" x1="-35.8489" y1="35.8489" x2="35.8489" y2="107.547" gradientUnits="userSpaceOnUse">
<stop stop-color="#33D35E"/>
<stop offset="1" stop-color="#2AB6D9"/>
</linearGradient>
</defs>
</svg>
